<svg width="96" height="96" xmlns="http://www.w3.org/2000/svg">

 <g>
  <title>background</title>
  <rect fill="none" id="canvas_background" height="98" width="98" y="-1" x="-1"/>
 </g>
 <g>
  <title>Layer 1</title>
  <path stroke="null" fill="#e5e5e5" d="m11.45699,20.198617l0,47.79355c22.189863,0 26.314901,2.702611 34.13825,6.685407l0,-47.935793c-3.982796,-3.982796 -9.814747,-6.543165 -34.13825,-6.543165zm72.543782,0c-24.323503,0 -30.297697,2.702611 -34.13825,6.685407l0,47.79355c7.823349,-3.982796 11.948388,-6.685407 34.13825,-6.685407l0,-47.79355zm-82.500771,4.978495l0,51.207375l40.539172,0c-6.543165,-3.12934 -11.237174,-4.978495 -30.582182,-4.978495l-3.271582,0l0,-3.271582l0,-42.957298l-6.685407,0zm85.914596,0l0,42.815055l0,3.271582l-3.271582,0c-19.345008,0 -24.039018,1.849155 -30.582182,4.978495l40.539172,0l0,-51.207375l-6.685407,0l0,0.142243z" class="st0" id="XMLID_8_"/>
 </g>
</svg>