<svg width="391.08" height="391.08" xmlns="http://www.w3.org/2000/svg">

 <title>Icon_home_remixofdynamitt</title>
 <g>
  <title>background</title>
  <rect fill="none" id="canvas_background" height="402" width="582" y="-1" x="-1"/>
 </g>
 <g>
  <title>Layer 1</title>
  <g stroke="null" id="svg_2">
   <path stroke="null" fill="#e5e5e5" d="m333.442554,198.581255l-136.675045,-121.036797l-136.772446,121.090908l0,173.016387a8.051804,8.051804 0 0 0 8.073449,8.062626l85.496307,0l0,-75.864444a8.051804,8.051804 0 0 1 8.062626,-8.073449l70.215195,0a8.051804,8.051804 0 0 1 8.062626,8.073449l0,75.864444l85.496307,0a8.030159,8.030159 0 0 0 8.062626,-8.062626l0,-173.070498l-0.021645,0z" class="cls-2" id="rect2391"/>
   <path stroke="null" fill="#e5e5e5" d="m195.97748,11.311876l-193.946748,171.728531l20.432535,23.040714l174.304242,-154.347889l174.239308,154.347889l20.389246,-23.040714l-193.870992,-171.728531l-0.757562,0.876608l-0.790029,-0.876608l0,0z" class="cls-2" id="path2399"/>
   <path stroke="null" fill="#e5e5e5" d="m59.995063,36.030049l49.165787,0l-0.432893,29.122856l-48.732895,44.025187l0,-73.148043l0,0z" class="cls-2" id="rect2404"/>
  </g>
 </g>
</svg>