<svg width="512" height="512" xmlns="http://www.w3.org/2000/svg">

 <g>
  <title>background</title>
  <rect fill="none" id="canvas_background" height="402" width="582" y="-1" x="-1"/>
 </g>
 <g>
  <title>Layer 1</title>
  <path fill="#e5e5e5" id="svg_1" d="m367.39844,231.89844c0,8.28515 -6.71485,15 -15,15c-8.28125,0 -15,-6.71485 -15,-15c0,-8.28125 6.71875,-15 15,-15c8.28515,0 15,6.71875 15,15zm0,0"/>
  <path fill="#e5e5e5" id="svg_2" d="m352.38281,72.30078c-30.44922,0 -55.14843,24.64063 -55.14843,55.14844l0,0.01953c0,8.28125 6.71484,14.99219 15,14.99219s15,-6.72656 15,-15.01172c0,-13.86719 11.21484,-25.14844 25.16796,-25.14844c13.875,0 25.16407,11.28906 25.16407,25.16797c0,13.875 -11.28907,25.16406 -25.16407,25.16406c-8.28515,0 -15,6.71875 -15,15l0,16.06641c0,8.28516 6.71485,15 15,15c8.28125,0 15,-6.71484 15,-15l0,-3.13672c23.15235,-6.55078 40.16407,-27.875 40.16407,-53.09375c0,-30.42187 -24.7461,-55.16797 -55.1836,-55.16797zm0,0"/>
  <path fill="#e5e5e5" id="svg_3" d="m143.162682,382.8125c18.64063,-14.51562 30.66406,-37.14844 30.66406,-62.54687c0,-43.70704 -35.5625,-79.26563 -79.26953,-79.26563s-79.26562,35.55859 -79.26562,79.26563c0,25.39843 12.02343,48.03125 30.66015,62.54687c-26.30468,15.64844 -46.72656,45.20313 -46.72656,82.05469l0,32.13281c0,8.28516 6.71484,15 15,15l160.66797,0c8.28125,0 15,-6.71484 15,-15l0,-32.13281c0,-36.84375 -20.41797,-66.40235 -46.73047,-82.05469zm-97.87109,-62.54687c0,-27.16407 22.10156,-49.26563 49.26953,-49.26563c27.16406,0 49.26562,22.10156 49.26562,49.26563c0,27.16796 -22.10156,49.26953 -49.26562,49.26953c-27.16797,0 -49.26953,-22.10157 -49.26953,-49.26953zm114.60156,161.73437l-130.66797,0l0,-17.13281c0,-36.08594 29.19531,-65.33203 65.33203,-65.33203c36.08594,0 65.33203,29.19531 65.33203,65.33203l0,17.13281l0.00391,0zm0,0"/>
  <path fill="#e5e5e5" id="svg_4" d="m448.80078,0l-192.80078,0c-34.90625,0 -63.19922,28.24219 -63.19922,63.19922l0,289.19922c0,12.26953 14.07031,19.44531 24,12l60.26563,-45.19922l171.73437,0c34.90625,0 63.19922,-28.24219 63.19922,-63.19922l0,-192.80078c0,-34.90625 -28.24219,-63.19922 -63.19922,-63.19922zm33.19922,256c0,18.35156 -14.83984,33.19922 -33.19922,33.19922l-176.73437,0c-3.2461,0 -6.40235,1.05469 -9,3l-40.26563,30.19922l0,-259.19922c0,-18.35156 14.83985,-33.19922 33.19922,-33.19922l192.80078,0c18.35156,0 33.19922,14.83984 33.19922,33.19922l0,192.80078zm0,0"/>
 </g>
</svg>